<svg width="28" height="28" viewBox="0 0 28 28" fill="none" xmlns="http://www.w3.org/2000/svg">
<path opacity="0.4" d="M27.3333 14C27.3333 18.0178 25.5562 21.6206 22.7451 24.0651C20.4041 26.1008 17.346 27.3333 14 27.3333C10.654 27.3333 7.59591 26.1008 5.25488 24.0651C2.44379 21.6206 0.666656 18.0178 0.666656 14C0.666656 6.63619 6.63619 0.666656 14 0.666656C21.3638 0.666656 27.3333 6.63619 27.3333 14Z" fill="#28303F"/>
<path d="M22.7451 24.0651C21.4205 20.5224 18.0048 18 14 18C9.99516 18 6.57946 20.5224 5.25488 24.0651C7.59591 26.1008 10.654 27.3333 14 27.3333C17.346 27.3333 20.4041 26.1008 22.7451 24.0651Z" fill="#28303F"/>
<ellipse cx="4" cy="4" rx="4" ry="4" transform="matrix(1 0 0 -1 10 15.3333)" fill="#28303F"/>
</svg>
