<svg width="20" height="20" viewBox="0 0 20 20" fill="none" xmlns="http://www.w3.org/2000/svg">
<path opacity="0.4" d="M6.66663 5C6.66663 3.15905 8.15901 1.66666 9.99996 1.66666H15C16.8409 1.66666 18.3333 3.15905 18.3333 5V10C18.3333 11.8409 16.8409 13.3333 15 13.3333H9.99996C8.15901 13.3333 6.66663 11.8409 6.66663 10V5Z" fill="#070707"/>
<path d="M1.66666 10C1.66666 8.15905 3.15904 6.66666 4.99999 6.66666H10C11.841 6.66666 13.3334 8.15905 13.3334 10V15C13.3334 16.8409 11.841 18.3333 10 18.3333H4.99999C3.15904 18.3333 1.66666 16.8409 1.66666 15V10Z" fill="#070707"/>
</svg>
