<svg width="25" height="24" viewBox="0 0 25 24" fill="none" xmlns="http://www.w3.org/2000/svg">
<path opacity="0.4" d="M3.12921 5C3.12921 3.34315 4.4799 2 6.14607 2H18.2135C19.8796 2 21.2303 3.34315 21.2303 5V13C21.2303 14.6569 19.8796 16 18.2135 16H6.14607C4.4799 16 3.12921 14.6569 3.12921 13V5Z" fill="#28303F"/>
<ellipse cx="1.00562" cy="1" rx="1.00562" ry="1" transform="matrix(1 0 0 -1 17.2079 14)" fill="#28303F"/>
<ellipse cx="1.00562" cy="1" rx="1.00562" ry="1" transform="matrix(1 0 0 -1 5.14044 6)" fill="#28303F"/>
<ellipse cx="2.01124" cy="2" rx="2.01124" ry="2" transform="matrix(1 0 0 -1 10.1685 11)" fill="#28303F"/>
<path fill-rule="evenodd" clip-rule="evenodd" d="M11.4256 19.8964L10.7018 20.6161C10.4073 20.909 9.92976 20.909 9.63523 20.6161C9.34069 20.3232 9.34069 19.8483 9.63523 19.5555L10.9354 18.2626C11.6226 17.5791 12.7369 17.5791 13.4242 18.2626L14.7243 19.5555C15.0189 19.8483 15.0189 20.3232 14.7243 20.6161C14.4298 20.909 13.9522 20.909 13.6577 20.6161L12.934 19.8964V22C12.934 22.4142 12.5963 22.75 12.1798 22.75C11.7632 22.75 11.4256 22.4142 11.4256 22V19.8964Z" fill="#28303F"/>
</svg>
