<svg width="16" height="16" viewBox="0 0 16 16" fill="none" xmlns="http://www.w3.org/2000/svg">
<path opacity="0.4" d="M14.6667 8C14.6667 11.6819 11.6819 14.6667 8.00001 14.6667C4.31811 14.6667 1.33334 11.6819 1.33334 8C1.33334 4.3181 4.31811 1.33333 8.00001 1.33333C11.6819 1.33333 14.6667 4.3181 14.6667 8Z" fill="#28303F"/>
<path fill-rule="evenodd" clip-rule="evenodd" d="M8 4.83333C8.27614 4.83333 8.5 5.05719 8.5 5.33333V6C8.5 6.27614 8.27614 6.5 8 6.5C7.72386 6.5 7.5 6.27614 7.5 6V5.33333C7.5 5.05719 7.72386 4.83333 8 4.83333ZM8 7.16667C8.27614 7.16667 8.5 7.39052 8.5 7.66667V10.6667C8.5 10.9428 8.27614 11.1667 8 11.1667C7.72386 11.1667 7.5 10.9428 7.5 10.6667V7.66667C7.5 7.39052 7.72386 7.16667 8 7.16667Z" fill="#28303F"/>
</svg>
