<svg width="22" height="22" viewBox="0 0 22 22" fill="none" xmlns="http://www.w3.org/2000/svg">
<path fill-rule="evenodd" clip-rule="evenodd" d="M5.12359 1.75C3.31858 1.75 1.85534 3.20507 1.85534 5V7C1.85534 7.41421 1.51766 7.75 1.10112 7.75C0.684581 7.75 0.346909 7.41421 0.346909 7V5C0.346909 2.37665 2.4855 0.25 5.12359 0.25H7.13483C7.55137 0.25 7.88904 0.585786 7.88904 1C7.88904 1.41421 7.55137 1.75 7.13483 1.75H5.12359ZM14.4256 1C14.4256 0.585786 14.7632 0.25 15.1798 0.25H17.191C19.8291 0.25 21.9677 2.37665 21.9677 5V7C21.9677 7.41421 21.63 7.75 21.2135 7.75C20.7969 7.75 20.4593 7.41421 20.4593 7V5C20.4593 3.20507 18.996 1.75 17.191 1.75H15.1798C14.7632 1.75 14.4256 1.41421 14.4256 1ZM1.10112 14.1944C1.51766 14.1944 1.85534 14.5302 1.85534 14.9444V17C1.85534 18.7949 3.31858 20.25 5.12359 20.25H7.13483C7.55137 20.25 7.88904 20.5858 7.88904 21C7.88904 21.4142 7.55137 21.75 7.13483 21.75H5.12359C2.4855 21.75 0.346909 19.6234 0.346909 17V14.9444C0.346909 14.5302 0.684581 14.1944 1.10112 14.1944ZM21.2135 14.1944C21.63 14.1944 21.9677 14.5302 21.9677 14.9444V17C21.9677 19.6234 19.8291 21.75 17.191 21.75H15.1798C14.7632 21.75 14.4256 21.4142 14.4256 21C14.4256 20.5858 14.7632 20.25 15.1798 20.25H17.191C18.996 20.25 20.4593 18.7949 20.4593 17V14.9444C20.4593 14.5302 20.7969 14.1944 21.2135 14.1944Z" fill="#28303F"/>
<path opacity="0.4" fill-rule="evenodd" clip-rule="evenodd" d="M5.375 11C5.375 10.5858 5.71267 10.25 6.12921 10.25H16.1854C16.6019 10.25 16.9396 10.5858 16.9396 11C16.9396 11.4142 16.6019 11.75 16.1854 11.75H6.12921C5.71267 11.75 5.375 11.4142 5.375 11Z" fill="#28303F"/>
<path opacity="0.4" fill-rule="evenodd" clip-rule="evenodd" d="M15.1798 5.75C15.5963 5.75 15.934 6.08579 15.934 6.5V8.5C15.934 8.91421 15.5963 9.25 15.1798 9.25C14.7632 9.25 14.4256 8.91421 14.4256 8.5V6.5C14.4256 6.08579 14.7632 5.75 15.1798 5.75Z" fill="#28303F"/>
<path opacity="0.4" fill-rule="evenodd" clip-rule="evenodd" d="M11.1573 5.75C11.5738 5.75 11.9115 6.08579 11.9115 6.5V8.5C11.9115 8.91421 11.5738 9.25 11.1573 9.25C10.7408 9.25 10.4031 8.91421 10.4031 8.5V6.5C10.4031 6.08579 10.7408 5.75 11.1573 5.75Z" fill="#28303F"/>
<path opacity="0.4" fill-rule="evenodd" clip-rule="evenodd" d="M7.13483 5.75C7.55137 5.75 7.88904 6.08579 7.88904 6.5V8.5C7.88904 8.91421 7.55137 9.25 7.13483 9.25C6.71829 9.25 6.38062 8.91421 6.38062 8.5V6.5C6.38062 6.08579 6.71829 5.75 7.13483 5.75Z" fill="#28303F"/>
<path opacity="0.4" fill-rule="evenodd" clip-rule="evenodd" d="M11.1573 12.75C11.5738 12.75 11.9115 13.0858 11.9115 13.5V15.5C11.9115 15.9142 11.5738 16.25 11.1573 16.25C10.7408 16.25 10.4031 15.9142 10.4031 15.5V13.5C10.4031 13.0858 10.7408 12.75 11.1573 12.75Z" fill="#28303F"/>
<path opacity="0.4" fill-rule="evenodd" clip-rule="evenodd" d="M15.1798 12.75C15.5963 12.75 15.934 13.0858 15.934 13.5V15.5C15.934 15.9142 15.5963 16.25 15.1798 16.25C14.7632 16.25 14.4256 15.9142 14.4256 15.5V13.5C14.4256 13.0858 14.7632 12.75 15.1798 12.75Z" fill="#28303F"/>
<path opacity="0.4" fill-rule="evenodd" clip-rule="evenodd" d="M7.13483 12.75C7.55137 12.75 7.88904 13.0858 7.88904 13.5V15.5C7.88904 15.9142 7.55137 16.25 7.13483 16.25C6.71829 16.25 6.38062 15.9142 6.38062 15.5V13.5C6.38062 13.0858 6.71829 12.75 7.13483 12.75Z" fill="#28303F"/>
</svg>
