<svg width="20" height="20" viewBox="0 0 20 20" fill="none" xmlns="http://www.w3.org/2000/svg">
<path opacity="0.4" d="M1.66669 5C1.66669 3.15905 3.15907 1.66666 5.00002 1.66666H15C16.841 1.66666 18.3334 3.15905 18.3334 5V15C18.3334 16.8409 16.841 18.3333 15 18.3333H5.00002C3.15907 18.3333 1.66669 16.8409 1.66669 15V5Z" fill="#28303F"/>
<path fill-rule="evenodd" clip-rule="evenodd" d="M10.3133 6.32004C10.5048 6.03284 10.8928 5.95523 11.18 6.1467L13.68 7.81337C13.9672 8.00484 14.0449 8.39288 13.8534 8.68008L12.1867 11.1801C11.9952 11.4673 11.6072 11.5449 11.32 11.3534C11.0328 11.162 10.9552 10.7739 11.1467 10.4867L12.1119 9.03888C10.9827 9.18958 9.92694 9.54994 9.09671 10.1034C7.99076 10.8407 7.29169 11.9092 7.29169 13.3334C7.29169 13.6786 7.01186 13.9584 6.66669 13.9584C6.32151 13.9584 6.04169 13.6786 6.04169 13.3334C6.04169 11.4243 7.00928 9.99273 8.40333 9.06337C9.30177 8.46441 10.3792 8.06983 11.5088 7.86817L10.4867 7.18676C10.1995 6.99529 10.1219 6.60725 10.3133 6.32004Z" fill="#28303F"/>
</svg>
