<svg width="19" height="21" viewBox="0 0 19 21" fill="none" xmlns="http://www.w3.org/2000/svg">
<path opacity="0.4" d="M0.101135 3C0.101135 1.34315 1.45183 0 3.11799 0H15.1854C16.8516 0 18.2023 1.34315 18.2023 3V11C18.2023 12.6569 16.8516 14 15.1854 14H3.11799C1.45183 14 0.101135 12.6569 0.101135 11V3Z" fill="#28303F"/>
<ellipse cx="1.00562" cy="1" rx="1.00562" ry="1" transform="matrix(1 0 0 -1 14.1798 12)" fill="#28303F"/>
<ellipse cx="1.00562" cy="1" rx="1.00562" ry="1" transform="matrix(1 0 0 -1 2.11238 4)" fill="#28303F"/>
<ellipse cx="2.01124" cy="2" rx="2.01124" ry="2" transform="matrix(1 0 0 -1 7.14047 9)" fill="#28303F"/>
<path fill-rule="evenodd" clip-rule="evenodd" d="M8.3975 18.6036L7.67378 17.8839C7.37925 17.591 6.9017 17.591 6.60716 17.8839C6.31263 18.1768 6.31263 18.6517 6.60716 18.9445L7.90732 20.2374C8.59458 20.9209 9.70884 20.9209 10.3961 20.2374L11.6963 18.9445C11.9908 18.6517 11.9908 18.1768 11.6963 17.8839C11.4017 17.591 10.9242 17.591 10.6296 17.8839L9.90592 18.6036V16.5C9.90592 16.0858 9.56825 15.75 9.15171 15.75C8.73517 15.75 8.3975 16.0858 8.3975 16.5V18.6036Z" fill="#28303F"/>
</svg>
